<svg xmlns="http://www.w3.org/2000/svg" xmlns:xlink="http://www.w3.org/1999/xlink" width="150" zoomAndPan="magnify" viewBox="0 0 112.5 112.499997" height="150" preserveAspectRatio="xMidYMid meet" version="1.0"><path fill="#ffffff" d="M 26.28125 76.09375 L 25.472656 76.09375 L 23.605469 71.421875 L 24.453125 71.421875 L 25.894531 75.214844 L 27.351562 71.421875 L 28.171875 71.421875 Z M 26.28125 76.09375 " fill-opacity="1" fill-rule="nonzero"/><path fill="#ffffff" d="M 34.5 75.035156 L 32.144531 75.035156 L 31.695312 76.09375 L 30.875 76.09375 L 32.941406 71.421875 L 33.742188 71.421875 L 35.789062 76.09375 L 34.949219 76.09375 Z M 34.195312 74.339844 L 33.320312 72.261719 L 32.4375 74.339844 Z M 34.195312 74.339844 " fill-opacity="1" fill-rule="nonzero"/><path fill="#ffffff" d="M 42.046875 76.09375 L 41.195312 74.679688 C 41.148438 74.6875 41.074219 74.6875 40.976562 74.6875 L 39.867188 74.6875 L 39.867188 76.09375 L 39.085938 76.09375 L 39.085938 71.421875 L 40.976562 71.421875 C 41.574219 71.421875 42.035156 71.5625 42.363281 71.835938 C 42.695312 72.117188 42.859375 72.507812 42.859375 73.011719 C 42.859375 73.386719 42.777344 73.703125 42.613281 73.964844 C 42.445312 74.222656 42.203125 74.410156 41.890625 74.53125 L 42.941406 76.09375 Z M 39.867188 73.976562 L 40.976562 73.976562 C 41.734375 73.976562 42.113281 73.664062 42.113281 73.039062 C 42.113281 72.433594 41.734375 72.128906 40.976562 72.128906 L 39.867188 72.128906 Z M 39.867188 73.976562 " fill-opacity="1" fill-rule="nonzero"/><path fill="#ffffff" d="M 46.585938 71.421875 L 47.367188 71.421875 L 47.367188 76.09375 L 46.585938 76.09375 Z M 46.585938 71.421875 " fill-opacity="1" fill-rule="nonzero"/><path fill="#ffffff" d="M 54.289062 75.035156 L 51.933594 75.035156 L 51.484375 76.09375 L 50.664062 76.09375 L 52.730469 71.421875 L 53.53125 71.421875 L 55.578125 76.09375 L 54.738281 76.09375 Z M 53.984375 74.339844 L 53.109375 72.261719 L 52.226562 74.339844 Z M 53.984375 74.339844 " fill-opacity="1" fill-rule="nonzero"/><path fill="#ffffff" d="M 66.398438 72.128906 L 64.050781 72.128906 L 64.050781 73.472656 L 66.179688 73.472656 L 66.179688 74.175781 L 64.050781 74.175781 L 64.050781 76.09375 L 63.269531 76.09375 L 63.269531 71.421875 L 66.402344 71.421875 Z M 66.398438 72.128906 " fill-opacity="1" fill-rule="nonzero"/><path fill="#ffffff" d="M 72.742188 76.09375 L 71.890625 74.679688 C 71.84375 74.6875 71.769531 74.6875 71.671875 74.6875 L 70.5625 74.6875 L 70.5625 76.09375 L 69.78125 76.09375 L 69.78125 71.421875 L 71.671875 71.421875 C 72.269531 71.421875 72.730469 71.5625 73.058594 71.835938 C 73.390625 72.117188 73.558594 72.507812 73.558594 73.011719 C 73.558594 73.386719 73.472656 73.703125 73.308594 73.964844 C 73.140625 74.222656 72.902344 74.410156 72.585938 74.53125 L 73.636719 76.09375 Z M 70.5625 73.976562 L 71.671875 73.976562 C 72.429688 73.976562 72.808594 73.664062 72.808594 73.039062 C 72.808594 72.433594 72.429688 72.128906 71.671875 72.128906 L 70.5625 72.128906 Z M 70.5625 73.976562 " fill-opacity="1" fill-rule="nonzero"/><path fill="#ffffff" d="M 80.617188 72.128906 L 78.0625 72.128906 L 78.0625 73.386719 L 80.347656 73.386719 L 80.347656 74.097656 L 78.0625 74.097656 L 78.0625 75.382812 L 80.695312 75.382812 L 80.695312 76.09375 L 77.28125 76.09375 L 77.28125 71.421875 L 80.617188 71.421875 Z M 80.617188 72.128906 " fill-opacity="1" fill-rule="nonzero"/><path fill="#ffffff" d="M 87.667969 72.128906 L 85.117188 72.128906 L 85.117188 73.386719 L 87.402344 73.386719 L 87.402344 74.097656 L 85.117188 74.097656 L 85.117188 75.382812 L 87.75 75.382812 L 87.75 76.09375 L 84.332031 76.09375 L 84.332031 71.421875 L 87.667969 71.421875 Z M 87.667969 72.128906 " fill-opacity="1" fill-rule="nonzero"/><path fill="#ffffff" d="M 47.347656 45.652344 L 39.320312 26.625 C 38.960938 25.558594 38.078125 25.027344 36.664062 25.027344 L 36.316406 25.027344 L 36.316406 24.277344 L 44.628906 24.277344 L 44.628906 25.027344 L 43.726562 25.027344 C 42.222656 25.027344 41.847656 25.589844 42.597656 26.71875 L 48.816406 41.652344 L 54.503906 26.6875 C 54.878906 25.578125 54.496094 25.027344 53.351562 25.027344 L 52.472656 25.027344 L 52.472656 24.277344 L 58.789062 24.277344 L 58.789062 25.027344 L 58.410156 25.027344 C 56.996094 25.027344 56.109375 25.558594 55.753906 26.625 L 48.222656 45.652344 Z M 47.347656 45.652344 " fill-opacity="1" fill-rule="nonzero"/><path fill="#ffffff" d="M 74.363281 44.785156 C 74.332031 43.878906 74.234375 42.78125 74.234375 41.902344 C 74.234375 41.652344 74.234375 41.429688 74.265625 41.210938 C 74.300781 41.023438 74.332031 40.867188 74.332031 40.742188 C 74.332031 40.492188 74.265625 40.429688 71.039062 40.429688 C 68.246094 40.429688 65.113281 40.554688 62.632812 40.554688 C 61.378906 40.554688 60.28125 40.523438 59.46875 40.429688 C 59.4375 40.429688 59.4375 40.429688 59.40625 40.429688 C 59.214844 40.429688 59.09375 40.585938 59.09375 40.804688 C 59.09375 40.992188 59.183594 41.179688 59.375 41.335938 C 62.101562 41.714844 62.195312 41.527344 62.257812 45.507812 C 62.289062 46.824219 62.289062 48.519531 62.289062 50.242188 C 62.289062 52.59375 62.289062 55.039062 62.257812 56.859375 C 62.226562 60.933594 62.257812 61.4375 59.5 61.8125 C 59.3125 61.96875 59.214844 62.1875 59.214844 62.378906 C 59.214844 62.566406 59.3125 62.722656 59.5 62.722656 C 59.53125 62.722656 59.5625 62.722656 59.59375 62.722656 C 60.628906 62.566406 61.914062 62.503906 63.199219 62.503906 C 65.738281 62.503906 68.214844 62.722656 68.214844 62.722656 C 68.402344 62.722656 68.53125 62.46875 68.53125 62.21875 C 68.53125 62.03125 68.433594 61.84375 68.246094 61.8125 C 65.394531 61.3125 65.015625 61.34375 65.015625 57.078125 C 65.015625 56.953125 65.015625 56.796875 65.015625 56.636719 C 65.015625 55.511719 64.953125 53.597656 64.953125 52.5 C 64.953125 52.34375 64.953125 52.21875 64.953125 52.09375 C 64.953125 51.589844 65.078125 51.527344 66.804688 51.527344 C 69.375 51.527344 71.726562 51.558594 72.039062 54.570312 C 72.039062 54.820312 72.261719 54.914062 72.480469 54.914062 C 72.699219 54.914062 72.949219 54.789062 72.949219 54.570312 C 72.949219 54.570312 72.792969 52.65625 72.792969 50.714844 C 72.792969 49.710938 72.824219 48.738281 72.949219 47.953125 C 72.949219 47.921875 72.949219 47.890625 72.949219 47.890625 C 72.949219 47.640625 72.730469 47.515625 72.511719 47.515625 C 72.292969 47.515625 72.070312 47.609375 72.039062 47.828125 C 71.570312 50.492188 69.4375 50.617188 67.023438 50.617188 C 65.207031 50.617188 64.953125 50.460938 64.953125 50.117188 C 64.953125 49.585938 64.953125 48.988281 64.953125 48.390625 C 64.953125 41.746094 65.078125 41.652344 65.925781 41.527344 C 66.460938 41.429688 67.085938 41.398438 67.777344 41.398438 C 71.976562 41.398438 72.449219 42.277344 73.578125 44.976562 C 73.640625 45.101562 73.765625 45.164062 73.890625 45.164062 C 74.109375 45.164062 74.363281 45.035156 74.363281 44.816406 Z M 74.363281 44.785156 " fill-opacity="1" fill-rule="nonzero"/><path stroke-linecap="butt" transform="matrix(0.171657, -0.244416, 0.244416, 0.171657, 45.751408, 54.004045)" fill="none" stroke-linejoin="miter" d="M -0.00213867 1.49805 L 116.892065 1.500802 " stroke="#ffffff" stroke-width="3" stroke-opacity="1" stroke-miterlimit="4"/></svg>