<svg xmlns="http://www.w3.org/2000/svg" xmlns:xlink="http://www.w3.org/1999/xlink" width="200" zoomAndPan="magnify" viewBox="0 0 150 44.999999" height="60" preserveAspectRatio="xMidYMid meet" version="1.0"><rect x="-15" width="180" fill="#ffffff" y="-4.5" height="53.999999" fill-opacity="1"/><rect x="-15" width="180" fill="#ffffff" y="-4.5" height="53.999999" fill-opacity="1"/><rect x="-15" width="180" fill="#ffffff" y="-4.5" height="53.999999" fill-opacity="1"/><rect x="-15" width="180" fill="#ffffff" y="-4.5" height="53.999999" fill-opacity="1"/><path fill="#000000" d="M 19.6875 14.425781 C 19.832031 14.328125 19.90625 14.15625 19.90625 14.007812 C 19.90625 13.835938 19.808594 13.6875 19.613281 13.6875 C 19.585938 13.6875 19.585938 13.6875 19.5625 13.6875 C 18.753906 13.761719 17.894531 13.785156 17.109375 13.785156 C 15.535156 13.785156 14.234375 13.6875 14.234375 13.6875 C 14.035156 13.6875 13.9375 13.835938 13.9375 13.984375 C 13.9375 14.128906 14.011719 14.300781 14.183594 14.425781 C 15.460938 14.523438 15.902344 14.644531 15.902344 15.234375 C 15.902344 16.5625 11.703125 27.640625 11.53125 27.640625 C 11.507812 27.640625 11.457031 27.589844 11.433594 27.519531 C 9.910156 23.367188 7.554688 18.132812 6.691406 15.675781 C 6.617188 15.457031 6.59375 15.285156 6.59375 15.164062 C 6.59375 14.597656 7.160156 14.574219 8.066406 14.425781 C 8.238281 14.328125 8.3125 14.128906 8.3125 13.957031 C 8.3125 13.8125 8.214844 13.664062 8.066406 13.664062 C 8.042969 13.664062 8.042969 13.664062 8.019531 13.664062 C 7.28125 13.761719 6.375 13.785156 5.488281 13.785156 C 3.742188 13.785156 2.074219 13.664062 2.074219 13.664062 C 1.902344 13.664062 1.804688 13.8125 1.804688 14.007812 C 1.804688 14.128906 1.855469 14.300781 2 14.425781 C 2.910156 14.546875 3.769531 14.820312 4.308594 16.09375 C 7.304688 23 9.394531 28.375 10.304688 31.078125 C 10.375 31.375 10.425781 31.742188 10.820312 31.742188 C 11.238281 31.742188 11.308594 31.449219 11.410156 31.101562 C 11.726562 30.195312 11.921875 29.261719 12.390625 28.15625 C 13.128906 26.386719 15.976562 18.675781 16.960938 16.636719 C 17.574219 15.335938 17.941406 14.746094 19.6875 14.425781 Z M 19.6875 14.425781 " fill-opacity="1" fill-rule="nonzero"/><path fill="#000000" d="M 36.902344 30.390625 C 35.671875 30.195312 35.183594 29.53125 34.789062 28.5 C 29.878906 15.582031 29.484375 13.710938 29.386719 13.246094 C 29.335938 13.027344 29.238281 12.925781 29.140625 12.925781 C 29.015625 12.925781 28.894531 13 28.796875 13.148438 C 28.402344 13.710938 28.011719 13.957031 27.542969 14.230469 C 27.421875 14.300781 27.371094 14.425781 27.371094 14.546875 C 27.371094 14.597656 27.371094 14.644531 27.394531 14.671875 C 27.445312 14.769531 27.496094 14.941406 27.496094 15.0625 C 27.496094 15.085938 27.46875 15.136719 27.46875 15.164062 C 25.628906 19.828125 23.664062 26.511719 22.53125 28.746094 C 22.015625 29.75 21.527344 30.246094 20.371094 30.417969 C 20.222656 30.539062 20.175781 30.710938 20.175781 30.859375 C 20.175781 31.03125 20.25 31.152344 20.394531 31.152344 C 20.394531 31.152344 20.421875 31.152344 20.445312 31.152344 C 21.058594 31.03125 21.796875 31.007812 22.507812 31.007812 C 24.082031 31.007812 25.578125 31.175781 25.578125 31.175781 C 25.75 31.175781 25.871094 31.03125 25.871094 30.859375 C 25.871094 30.710938 25.800781 30.539062 25.628906 30.417969 C 24.523438 30.246094 23.882812 30.121094 23.882812 29.308594 C 23.882812 29.164062 23.90625 29.015625 23.933594 28.84375 C 24.054688 28.179688 24.914062 25.699219 25.257812 24.496094 C 25.382812 24.054688 25.675781 24.003906 25.921875 24.003906 C 26.390625 23.980469 27.296875 23.957031 28.207031 23.957031 C 30.835938 23.957031 30.910156 24.054688 30.957031 24.203125 C 31.300781 25.136719 32.554688 28.746094 32.554688 29.410156 C 32.554688 30.121094 31.964844 30.292969 30.980469 30.417969 C 30.8125 30.511719 30.738281 30.6875 30.738281 30.859375 C 30.738281 31.007812 30.835938 31.152344 30.980469 31.152344 C 31.007812 31.152344 31.007812 31.152344 31.03125 31.152344 C 31.695312 31.054688 32.53125 31.007812 33.339844 31.007812 C 35.109375 31.007812 36.851562 31.175781 36.851562 31.175781 C 37.023438 31.175781 37.097656 31.007812 37.097656 30.808594 C 37.097656 30.636719 37.050781 30.488281 36.902344 30.390625 Z M 30.46875 22.726562 C 30.46875 22.828125 30.394531 22.875 30.269531 22.875 C 29.851562 22.921875 28.796875 22.921875 27.8125 22.921875 C 27.027344 22.921875 26.316406 22.921875 26.046875 22.898438 C 25.972656 22.875 25.800781 22.851562 25.800781 22.753906 L 25.800781 22.726562 C 26.144531 21.523438 27.496094 17.371094 27.9375 16.390625 C 27.960938 16.339844 28.011719 16.316406 28.035156 16.316406 C 28.160156 16.316406 30.46875 22.605469 30.46875 22.726562 Z M 30.46875 22.726562 " fill-opacity="1" fill-rule="nonzero"/><path fill="#000000" d="M 55.25 30.859375 C 55.25 30.660156 55.25 30.539062 54.730469 30.539062 C 53.085938 30.539062 52.03125 30.023438 50.925781 28.792969 C 49.207031 26.878906 48.320312 24.273438 46.652344 22.382812 C 46.550781 22.285156 46.457031 22.164062 46.457031 22.089844 C 46.457031 22.039062 46.480469 22.015625 46.601562 21.992188 C 48.59375 21.523438 50.433594 20.246094 50.433594 17.691406 C 50.433594 14.84375 47.855469 13.664062 44.734375 13.664062 C 44.5625 13.664062 44.367188 13.6875 44.171875 13.6875 C 42.722656 13.761719 41.617188 13.835938 40.363281 13.835938 C 39.722656 13.835938 39.039062 13.8125 38.25 13.761719 L 38.226562 13.761719 C 38.078125 13.761719 37.980469 13.910156 37.980469 14.082031 C 37.980469 14.230469 38.054688 14.375 38.203125 14.5 C 40.484375 14.941406 40.363281 14.671875 40.460938 18.160156 C 40.484375 18.773438 40.484375 20 40.484375 21.351562 C 40.484375 23.171875 40.484375 25.230469 40.460938 26.191406 C 40.414062 30 40.386719 30.195312 38.300781 30.441406 C 38.128906 30.5625 38.054688 30.734375 38.054688 30.882812 C 38.054688 31.054688 38.128906 31.152344 38.277344 31.152344 C 38.300781 31.152344 38.324219 31.152344 38.347656 31.152344 C 39.183594 31.03125 40.191406 31.007812 41.199219 31.007812 C 43.1875 31.007812 45.054688 31.152344 45.054688 31.152344 C 45.226562 31.152344 45.324219 31.03125 45.324219 30.859375 C 45.324219 30.710938 45.25 30.5625 45.105469 30.441406 C 42.746094 30.246094 42.722656 29.851562 42.597656 26.117188 C 42.550781 25.035156 42.574219 23.929688 42.550781 22.828125 C 42.550781 22.652344 42.671875 22.582031 42.867188 22.554688 C 43.164062 22.554688 43.335938 22.554688 43.703125 22.53125 C 43.753906 22.53125 43.777344 22.53125 43.824219 22.53125 C 44.144531 22.53125 44.390625 22.703125 44.5625 22.921875 C 46.0625 24.691406 47.117188 27.320312 48.566406 29.261719 C 49.746094 30.808594 51.367188 31.324219 53.183594 31.324219 C 54.832031 31.324219 55.25 31.175781 55.25 30.859375 Z M 48.125 18.257812 C 48.125 21.328125 45.175781 21.84375 43.113281 21.84375 C 43.015625 21.84375 42.917969 21.84375 42.820312 21.84375 C 42.648438 21.84375 42.550781 21.574219 42.550781 21.402344 C 42.550781 20.027344 42.550781 19.140625 42.574219 17.789062 C 42.574219 16.511719 42.597656 16.09375 42.621094 15.480469 C 42.695312 14.71875 42.820312 14.402344 44.242188 14.402344 C 45.890625 14.402344 48.125 15.0625 48.125 18.257812 Z M 48.125 18.257812 " fill-opacity="1" fill-rule="nonzero"/><path fill="#000000" d="M 61.902344 30.441406 C 59.617188 30.195312 59.765625 29.457031 59.71875 26.632812 C 59.691406 25.160156 59.667969 23.390625 59.667969 21.671875 C 59.667969 20.394531 59.667969 19.164062 59.71875 18.058594 C 59.8125 14.964844 59.546875 14.621094 61.878906 14.402344 C 62.050781 14.328125 62.125 14.179688 62.125 14.007812 C 62.125 13.835938 62.023438 13.664062 61.855469 13.664062 L 61.828125 13.664062 C 60.96875 13.785156 59.914062 13.8125 58.90625 13.8125 C 57.039062 13.8125 55.34375 13.6875 55.34375 13.6875 C 55.171875 13.6875 55.074219 13.835938 55.074219 14.007812 C 55.074219 14.128906 55.121094 14.300781 55.269531 14.402344 C 57.480469 14.597656 57.457031 14.597656 57.582031 18.109375 C 57.605469 18.96875 57.628906 20.515625 57.628906 22.164062 C 57.628906 23.785156 57.605469 25.476562 57.582031 26.65625 C 57.503906 29.605469 57.75 30.195312 55.367188 30.441406 C 55.222656 30.5625 55.148438 30.734375 55.148438 30.882812 C 55.148438 31.03125 55.222656 31.152344 55.367188 31.152344 C 55.394531 31.152344 55.417969 31.152344 55.441406 31.152344 C 56.15625 31.03125 57.085938 30.980469 58.046875 30.980469 C 59.9375 30.980469 61.855469 31.152344 61.855469 31.152344 C 62.023438 31.152344 62.125 31.03125 62.125 30.859375 C 62.125 30.710938 62.050781 30.5625 61.902344 30.441406 Z M 61.902344 30.441406 " fill-opacity="1" fill-rule="nonzero"/><path fill="#000000" d="M 79.734375 30.390625 C 78.503906 30.195312 78.015625 29.53125 77.621094 28.5 C 72.710938 15.582031 72.316406 13.710938 72.21875 13.246094 C 72.167969 13.027344 72.070312 12.925781 71.972656 12.925781 C 71.847656 12.925781 71.726562 13 71.628906 13.148438 C 71.234375 13.710938 70.84375 13.957031 70.375 14.230469 C 70.253906 14.300781 70.203125 14.425781 70.203125 14.546875 C 70.203125 14.597656 70.203125 14.644531 70.226562 14.671875 C 70.277344 14.769531 70.328125 14.941406 70.328125 15.0625 C 70.328125 15.085938 70.300781 15.136719 70.300781 15.164062 C 68.460938 19.828125 66.496094 26.511719 65.363281 28.746094 C 64.847656 29.75 64.359375 30.246094 63.203125 30.417969 C 63.054688 30.539062 63.007812 30.710938 63.007812 30.859375 C 63.007812 31.03125 63.082031 31.152344 63.226562 31.152344 C 63.226562 31.152344 63.25 31.152344 63.277344 31.152344 C 63.890625 31.03125 64.628906 31.007812 65.339844 31.007812 C 66.914062 31.007812 68.410156 31.175781 68.410156 31.175781 C 68.582031 31.175781 68.703125 31.03125 68.703125 30.859375 C 68.703125 30.710938 68.632812 30.539062 68.460938 30.417969 C 67.355469 30.246094 66.714844 30.121094 66.714844 29.308594 C 66.714844 29.164062 66.738281 29.015625 66.765625 28.84375 C 66.886719 28.179688 67.746094 25.699219 68.089844 24.496094 C 68.214844 24.054688 68.507812 24.003906 68.753906 24.003906 C 69.222656 23.980469 70.128906 23.957031 71.039062 23.957031 C 73.667969 23.957031 73.742188 24.054688 73.789062 24.203125 C 74.132812 25.136719 75.386719 28.746094 75.386719 29.410156 C 75.386719 30.121094 74.796875 30.292969 73.8125 30.417969 C 73.640625 30.511719 73.570312 30.6875 73.570312 30.859375 C 73.570312 31.007812 73.667969 31.152344 73.8125 31.152344 C 73.839844 31.152344 73.839844 31.152344 73.863281 31.152344 C 74.527344 31.054688 75.359375 31.007812 76.171875 31.007812 C 77.941406 31.007812 79.683594 31.175781 79.683594 31.175781 C 79.855469 31.175781 79.929688 31.007812 79.929688 30.808594 C 79.929688 30.636719 79.882812 30.488281 79.734375 30.390625 Z M 73.300781 22.726562 C 73.300781 22.828125 73.222656 22.875 73.101562 22.875 C 72.683594 22.921875 71.628906 22.921875 70.644531 22.921875 C 69.859375 22.921875 69.148438 22.921875 68.878906 22.898438 C 68.804688 22.875 68.632812 22.851562 68.632812 22.753906 L 68.632812 22.726562 C 68.976562 21.523438 70.328125 17.371094 70.769531 16.390625 C 70.792969 16.339844 70.84375 16.316406 70.867188 16.316406 C 70.992188 16.316406 73.300781 22.605469 73.300781 22.726562 Z M 73.300781 22.726562 " fill-opacity="1" fill-rule="nonzero"/><path fill="#000000" d="M 99.355469 17.101562 C 99.332031 16.390625 99.257812 15.53125 99.257812 14.84375 C 99.257812 14.644531 99.257812 14.472656 99.28125 14.300781 C 99.308594 14.15625 99.332031 14.03125 99.332031 13.933594 C 99.332031 13.738281 99.28125 13.6875 96.753906 13.6875 C 94.566406 13.6875 92.109375 13.785156 90.167969 13.785156 C 89.1875 13.785156 88.328125 13.761719 87.691406 13.6875 C 87.664062 13.6875 87.664062 13.6875 87.640625 13.6875 C 87.492188 13.6875 87.394531 13.8125 87.394531 13.984375 C 87.394531 14.128906 87.46875 14.277344 87.613281 14.402344 C 89.75 14.695312 89.828125 14.546875 89.875 17.667969 C 89.898438 18.699219 89.898438 20.027344 89.898438 21.375 C 89.898438 23.21875 89.898438 25.136719 89.875 26.558594 C 89.851562 29.75 89.875 30.144531 87.714844 30.441406 C 87.566406 30.5625 87.492188 30.734375 87.492188 30.882812 C 87.492188 31.03125 87.566406 31.152344 87.714844 31.152344 C 87.738281 31.152344 87.761719 31.152344 87.785156 31.152344 C 88.597656 31.03125 89.605469 30.980469 90.613281 30.980469 C 92.601562 30.980469 94.542969 31.152344 94.542969 31.152344 C 94.691406 31.152344 94.789062 30.957031 94.789062 30.757812 C 94.789062 30.613281 94.714844 30.464844 94.566406 30.441406 C 92.332031 30.046875 92.035156 30.074219 92.035156 26.730469 C 92.035156 26.632812 92.035156 26.511719 92.035156 26.386719 C 92.035156 25.503906 91.988281 24.003906 91.988281 23.144531 C 91.988281 23.023438 91.988281 22.921875 91.988281 22.828125 C 91.988281 22.433594 92.085938 22.382812 93.4375 22.382812 C 95.449219 22.382812 97.292969 22.410156 97.539062 24.765625 C 97.539062 24.964844 97.710938 25.035156 97.882812 25.035156 C 98.054688 25.035156 98.25 24.9375 98.25 24.765625 C 98.25 24.765625 98.128906 23.265625 98.128906 21.746094 C 98.128906 20.957031 98.152344 20.195312 98.25 19.582031 C 98.25 19.558594 98.25 19.535156 98.25 19.535156 C 98.25 19.335938 98.078125 19.238281 97.90625 19.238281 C 97.734375 19.238281 97.5625 19.3125 97.539062 19.484375 C 97.167969 21.574219 95.5 21.671875 93.609375 21.671875 C 92.183594 21.671875 91.988281 21.546875 91.988281 21.277344 C 91.988281 20.863281 91.988281 20.394531 91.988281 19.925781 C 91.988281 14.71875 92.085938 14.644531 92.75 14.546875 C 93.167969 14.472656 93.65625 14.449219 94.199219 14.449219 C 97.492188 14.449219 97.859375 15.136719 98.742188 17.25 C 98.792969 17.347656 98.890625 17.398438 98.988281 17.398438 C 99.160156 17.398438 99.355469 17.300781 99.355469 17.128906 Z M 99.355469 17.101562 " fill-opacity="1" fill-rule="nonzero"/><path fill="#000000" d="M 118.5625 30.859375 C 118.5625 30.660156 118.5625 30.539062 118.046875 30.539062 C 116.402344 30.539062 115.347656 30.023438 114.238281 28.792969 C 112.519531 26.878906 111.636719 24.273438 109.964844 22.382812 C 109.867188 22.285156 109.769531 22.164062 109.769531 22.089844 C 109.769531 22.039062 109.792969 22.015625 109.917969 21.992188 C 111.90625 21.523438 113.75 20.246094 113.75 17.691406 C 113.75 14.84375 111.167969 13.664062 108.050781 13.664062 C 107.878906 13.664062 107.679688 13.6875 107.484375 13.6875 C 106.035156 13.761719 104.929688 13.835938 103.675781 13.835938 C 103.039062 13.835938 102.351562 13.8125 101.566406 13.761719 L 101.539062 13.761719 C 101.394531 13.761719 101.296875 13.910156 101.296875 14.082031 C 101.296875 14.230469 101.367188 14.375 101.515625 14.5 C 103.800781 14.941406 103.675781 14.671875 103.777344 18.160156 C 103.800781 18.773438 103.800781 20 103.800781 21.351562 C 103.800781 23.171875 103.800781 25.230469 103.777344 26.191406 C 103.726562 30 103.703125 30.195312 101.613281 30.441406 C 101.441406 30.5625 101.367188 30.734375 101.367188 30.882812 C 101.367188 31.054688 101.441406 31.152344 101.589844 31.152344 C 101.613281 31.152344 101.640625 31.152344 101.664062 31.152344 C 102.5 31.03125 103.503906 31.007812 104.511719 31.007812 C 106.503906 31.007812 108.367188 31.152344 108.367188 31.152344 C 108.542969 31.152344 108.640625 31.03125 108.640625 30.859375 C 108.640625 30.710938 108.566406 30.5625 108.417969 30.441406 C 106.058594 30.246094 106.035156 29.851562 105.914062 26.117188 C 105.863281 25.035156 105.886719 23.929688 105.863281 22.828125 C 105.863281 22.652344 105.988281 22.582031 106.183594 22.554688 C 106.476562 22.554688 106.648438 22.554688 107.015625 22.53125 C 107.066406 22.53125 107.09375 22.53125 107.140625 22.53125 C 107.460938 22.53125 107.707031 22.703125 107.878906 22.921875 C 109.375 24.691406 110.433594 27.320312 111.882812 29.261719 C 113.058594 30.808594 114.679688 31.324219 116.5 31.324219 C 118.144531 31.324219 118.5625 31.175781 118.5625 30.859375 Z M 111.441406 18.257812 C 111.441406 21.328125 108.492188 21.84375 106.429688 21.84375 C 106.332031 21.84375 106.230469 21.84375 106.132812 21.84375 C 105.960938 21.84375 105.863281 21.574219 105.863281 21.402344 C 105.863281 20.027344 105.863281 19.140625 105.886719 17.789062 C 105.886719 16.511719 105.914062 16.09375 105.9375 15.480469 C 106.011719 14.71875 106.132812 14.402344 107.558594 14.402344 C 109.203125 14.402344 111.441406 15.0625 111.441406 18.257812 Z M 111.441406 18.257812 " fill-opacity="1" fill-rule="nonzero"/><path fill="#000000" d="M 132.78125 27.171875 L 132.78125 27.148438 C 132.78125 27.027344 132.5625 26.828125 132.367188 26.828125 C 132.265625 26.828125 132.191406 26.878906 132.144531 26.953125 C 130.425781 29.484375 128.976562 30.417969 126.324219 30.417969 C 125.953125 30.417969 125.632812 30.390625 125.339844 30.339844 C 122.980469 30 123.054688 29.136719 122.957031 27.101562 C 122.933594 26.460938 122.90625 24.765625 122.90625 23.589844 C 122.90625 23.144531 122.90625 22.777344 122.90625 22.554688 C 122.90625 22.136719 123.007812 22.136719 124.160156 22.136719 C 126.148438 22.136719 127.847656 22.285156 128.042969 24.472656 C 128.066406 24.617188 128.238281 24.71875 128.410156 24.71875 C 128.605469 24.71875 128.777344 24.617188 128.777344 24.472656 C 128.777344 24.472656 128.65625 22.972656 128.65625 21.449219 C 128.65625 20.664062 128.679688 19.902344 128.777344 19.289062 L 128.777344 19.265625 C 128.777344 19.066406 128.605469 18.992188 128.410156 18.992188 C 128.238281 18.992188 128.066406 19.066406 128.042969 19.214844 C 127.675781 21.300781 126.273438 21.402344 124.285156 21.402344 C 123.179688 21.402344 122.90625 21.375 122.90625 21.007812 C 122.90625 20.445312 122.90625 19.855469 122.90625 19.214844 C 122.90625 14.890625 122.980469 14.644531 123.695312 14.523438 C 124.136719 14.472656 124.625 14.449219 125.167969 14.449219 C 127.917969 14.449219 128.902344 14.917969 129.761719 17.25 C 129.785156 17.347656 129.882812 17.371094 129.984375 17.371094 C 130.007812 17.371094 130.375 17.371094 130.375 16.929688 C 130.375 16.121094 130.203125 15.085938 130.203125 14.300781 C 130.203125 14.179688 130.226562 14.054688 130.226562 13.957031 C 130.226562 13.933594 130.226562 13.933594 130.226562 13.910156 C 130.226562 13.6875 130.105469 13.664062 129.6875 13.664062 C 129.6875 13.664062 125.734375 13.761719 122.441406 13.761719 C 120.769531 13.761719 119.296875 13.738281 118.535156 13.664062 L 118.511719 13.664062 C 118.339844 13.664062 118.242188 13.8125 118.242188 13.984375 C 118.242188 14.128906 118.316406 14.277344 118.464844 14.402344 C 120.15625 14.402344 120.5 14.941406 120.601562 15.503906 C 120.722656 16.09375 120.796875 17.445312 120.796875 19.214844 C 120.796875 20.195312 120.820312 21.179688 120.820312 22.164062 C 120.820312 23.882812 120.796875 25.578125 120.746094 27.273438 C 120.746094 30.074219 120.671875 30.269531 118.558594 30.441406 C 118.414062 30.5625 118.339844 30.734375 118.339844 30.882812 C 118.339844 31.03125 118.4375 31.152344 118.609375 31.152344 L 118.632812 31.152344 C 119.59375 31.078125 121.238281 31.054688 123.007812 31.054688 C 126.542969 31.054688 130.597656 31.152344 130.597656 31.152344 C 131.015625 31.152344 131.1875 31.054688 131.257812 30.882812 C 131.503906 30.144531 132.460938 28.230469 132.78125 27.171875 Z M 132.78125 27.171875 " fill-opacity="1" fill-rule="nonzero"/><path fill="#000000" d="M 148.058594 27.171875 L 148.058594 27.148438 C 148.058594 27.027344 147.835938 26.828125 147.640625 26.828125 C 147.542969 26.828125 147.46875 26.878906 147.417969 26.953125 C 145.699219 29.484375 144.25 30.417969 141.597656 30.417969 C 141.230469 30.417969 140.910156 30.390625 140.617188 30.339844 C 138.257812 30 138.332031 29.136719 138.234375 27.101562 C 138.207031 26.460938 138.183594 24.765625 138.183594 23.589844 C 138.183594 23.144531 138.183594 22.777344 138.183594 22.554688 C 138.183594 22.136719 138.285156 22.136719 139.4375 22.136719 C 141.425781 22.136719 143.121094 22.285156 143.316406 24.472656 C 143.34375 24.617188 143.515625 24.71875 143.6875 24.71875 C 143.882812 24.71875 144.054688 24.617188 144.054688 24.472656 C 144.054688 24.472656 143.933594 22.972656 143.933594 21.449219 C 143.933594 20.664062 143.957031 19.902344 144.054688 19.289062 L 144.054688 19.265625 C 144.054688 19.066406 143.882812 18.992188 143.6875 18.992188 C 143.515625 18.992188 143.34375 19.066406 143.316406 19.214844 C 142.949219 21.300781 141.550781 21.402344 139.558594 21.402344 C 138.453125 21.402344 138.183594 21.375 138.183594 21.007812 C 138.183594 20.445312 138.183594 19.855469 138.183594 19.214844 C 138.183594 14.890625 138.257812 14.644531 138.96875 14.523438 C 139.414062 14.472656 139.902344 14.449219 140.445312 14.449219 C 143.195312 14.449219 144.179688 14.917969 145.035156 17.25 C 145.0625 17.347656 145.160156 17.371094 145.257812 17.371094 C 145.28125 17.371094 145.652344 17.371094 145.652344 16.929688 C 145.652344 16.121094 145.480469 15.085938 145.480469 14.300781 C 145.480469 14.179688 145.503906 14.054688 145.503906 13.957031 C 145.503906 13.933594 145.503906 13.933594 145.503906 13.910156 C 145.503906 13.6875 145.382812 13.664062 144.964844 13.664062 C 144.964844 13.664062 141.007812 13.761719 137.71875 13.761719 C 136.046875 13.761719 134.574219 13.738281 133.8125 13.664062 L 133.789062 13.664062 C 133.617188 13.664062 133.515625 13.8125 133.515625 13.984375 C 133.515625 14.128906 133.589844 14.277344 133.738281 14.402344 C 135.433594 14.402344 135.777344 14.941406 135.875 15.503906 C 135.996094 16.09375 136.070312 17.445312 136.070312 19.214844 C 136.070312 20.195312 136.097656 21.179688 136.097656 22.164062 C 136.097656 23.882812 136.070312 25.578125 136.023438 27.273438 C 136.023438 30.074219 135.949219 30.269531 133.835938 30.441406 C 133.6875 30.5625 133.617188 30.734375 133.617188 30.882812 C 133.617188 31.03125 133.714844 31.152344 133.886719 31.152344 L 133.910156 31.152344 C 134.867188 31.078125 136.515625 31.054688 138.285156 31.054688 C 141.820312 31.054688 145.871094 31.152344 145.871094 31.152344 C 146.289062 31.152344 146.460938 31.054688 146.535156 30.882812 C 146.78125 30.144531 147.738281 28.230469 148.058594 27.171875 Z M 148.058594 27.171875 " fill-opacity="1" fill-rule="nonzero"/></svg>