<svg xmlns="http://www.w3.org/2000/svg" xmlns:xlink="http://www.w3.org/1999/xlink" width="230" zoomAndPan="magnify" viewBox="0 0 172.5 44.999999" height="60" preserveAspectRatio="xMidYMid meet" version="1.0"><defs><clipPath id="99441d6560"><path d="M 0 0.0664062 L 172 0.0664062 L 172 44.933594 L 0 44.933594 Z M 0 0.0664062 " clip-rule="nonzero"/></clipPath></defs><g clip-path="url(#99441d6560)"><path fill="#ffffff" d="M 0 0.0664062 L 172 0.0664062 L 172 44.933594 L 0 44.933594 Z M 0 0.0664062 " fill-opacity="1" fill-rule="nonzero"/><path fill="#ffffff" d="M 0 0.0664062 L 172 0.0664062 L 172 44.933594 L 0 44.933594 Z M 0 0.0664062 " fill-opacity="1" fill-rule="nonzero"/><rect x="-17.25" width="207" fill="#ffffff" y="-4.5" height="53.999999" fill-opacity="1"/><rect x="-17.25" width="207" fill="#ffffff" y="-4.5" height="53.999999" fill-opacity="1"/></g><path fill="#000000" d="M 22.914062 13.308594 C 23.082031 13.195312 23.164062 13 23.164062 12.832031 C 23.164062 12.636719 23.054688 12.46875 22.828125 12.46875 C 22.800781 12.46875 22.800781 12.46875 22.773438 12.46875 C 21.847656 12.554688 20.867188 12.582031 19.972656 12.582031 C 18.175781 12.582031 16.691406 12.46875 16.691406 12.46875 C 16.464844 12.46875 16.355469 12.636719 16.355469 12.804688 C 16.355469 12.972656 16.4375 13.167969 16.636719 13.308594 C 18.09375 13.421875 18.597656 13.5625 18.597656 14.234375 C 18.597656 15.746094 13.804688 28.386719 13.609375 28.386719 C 13.582031 28.386719 13.523438 28.328125 13.496094 28.246094 C 11.757812 23.507812 9.070312 17.539062 8.089844 14.738281 C 8.003906 14.488281 7.976562 14.292969 7.976562 14.152344 C 7.976562 13.503906 8.621094 13.476562 9.660156 13.308594 C 9.855469 13.195312 9.9375 12.972656 9.9375 12.777344 C 9.9375 12.609375 9.828125 12.441406 9.660156 12.441406 C 9.628906 12.441406 9.628906 12.441406 9.601562 12.441406 C 8.761719 12.554688 7.726562 12.582031 6.714844 12.582031 C 4.726562 12.582031 2.820312 12.441406 2.820312 12.441406 C 2.625 12.441406 2.511719 12.609375 2.511719 12.832031 C 2.511719 12.972656 2.570312 13.167969 2.738281 13.308594 C 3.773438 13.449219 4.753906 13.757812 5.371094 15.214844 C 8.789062 23.089844 11.171875 29.226562 12.207031 32.308594 C 12.292969 32.644531 12.347656 33.066406 12.796875 33.066406 C 13.273438 33.066406 13.355469 32.730469 13.46875 32.335938 C 13.832031 31.300781 14.058594 30.234375 14.589844 28.972656 C 15.429688 26.957031 18.679688 18.15625 19.800781 15.832031 C 20.503906 14.347656 20.921875 13.671875 22.914062 13.308594 Z M 22.914062 13.308594 " fill-opacity="1" fill-rule="nonzero"/><path fill="#000000" d="M 42.554688 31.523438 C 41.152344 31.300781 40.59375 30.542969 40.144531 29.367188 C 34.539062 14.628906 34.089844 12.496094 33.980469 11.964844 C 33.921875 11.710938 33.8125 11.601562 33.699219 11.601562 C 33.558594 11.601562 33.417969 11.683594 33.308594 11.851562 C 32.859375 12.496094 32.410156 12.777344 31.875 13.085938 C 31.738281 13.167969 31.679688 13.308594 31.679688 13.449219 C 31.679688 13.503906 31.679688 13.5625 31.707031 13.589844 C 31.765625 13.703125 31.820312 13.898438 31.820312 14.039062 C 31.820312 14.066406 31.792969 14.121094 31.792969 14.152344 C 29.691406 19.476562 27.449219 27.097656 26.160156 29.648438 C 25.570312 30.792969 25.011719 31.355469 23.695312 31.550781 C 23.527344 31.691406 23.472656 31.890625 23.472656 32.058594 C 23.472656 32.253906 23.554688 32.394531 23.722656 32.394531 C 23.722656 32.394531 23.75 32.394531 23.777344 32.394531 C 24.480469 32.253906 25.320312 32.226562 26.132812 32.226562 C 27.925781 32.226562 29.632812 32.421875 29.632812 32.421875 C 29.832031 32.421875 29.972656 32.253906 29.972656 32.058594 C 29.972656 31.890625 29.886719 31.691406 29.691406 31.550781 C 28.429688 31.355469 27.703125 31.214844 27.703125 30.289062 C 27.703125 30.121094 27.730469 29.957031 27.757812 29.757812 C 27.898438 29.003906 28.878906 26.171875 29.269531 24.800781 C 29.410156 24.296875 29.746094 24.238281 30.027344 24.238281 C 30.558594 24.210938 31.597656 24.183594 32.632812 24.183594 C 35.632812 24.183594 35.714844 24.296875 35.773438 24.464844 C 36.164062 25.527344 37.59375 29.648438 37.59375 30.402344 C 37.59375 31.214844 36.921875 31.414062 35.800781 31.550781 C 35.605469 31.664062 35.519531 31.863281 35.519531 32.058594 C 35.519531 32.226562 35.632812 32.394531 35.800781 32.394531 C 35.828125 32.394531 35.828125 32.394531 35.855469 32.394531 C 36.613281 32.28125 37.566406 32.226562 38.492188 32.226562 C 40.507812 32.226562 42.496094 32.421875 42.496094 32.421875 C 42.695312 32.421875 42.777344 32.226562 42.777344 32 C 42.777344 31.804688 42.722656 31.636719 42.554688 31.523438 Z M 35.210938 22.78125 C 35.210938 22.894531 35.128906 22.949219 34.988281 22.949219 C 34.511719 23.003906 33.308594 23.003906 32.183594 23.003906 C 31.289062 23.003906 30.476562 23.003906 30.167969 22.976562 C 30.082031 22.949219 29.886719 22.921875 29.886719 22.808594 L 29.886719 22.78125 C 30.28125 21.40625 31.820312 16.671875 32.324219 15.550781 C 32.351562 15.496094 32.410156 15.464844 32.4375 15.464844 C 32.578125 15.464844 35.210938 22.640625 35.210938 22.78125 Z M 35.210938 22.78125 " fill-opacity="1" fill-rule="nonzero"/><path fill="#000000" d="M 63.484375 32.058594 C 63.484375 31.832031 63.484375 31.691406 62.894531 31.691406 C 61.019531 31.691406 59.8125 31.105469 58.550781 29.703125 C 56.589844 27.515625 55.582031 24.546875 53.675781 22.390625 C 53.5625 22.277344 53.453125 22.136719 53.453125 22.054688 C 53.453125 21.996094 53.480469 21.96875 53.621094 21.941406 C 55.890625 21.40625 57.992188 19.949219 57.992188 17.039062 C 57.992188 13.785156 55.046875 12.441406 51.488281 12.441406 C 51.292969 12.441406 51.070312 12.46875 50.847656 12.46875 C 49.191406 12.554688 47.933594 12.636719 46.5 12.636719 C 45.773438 12.636719 44.988281 12.609375 44.089844 12.554688 L 44.0625 12.554688 C 43.894531 12.554688 43.785156 12.71875 43.785156 12.917969 C 43.785156 13.085938 43.867188 13.253906 44.035156 13.394531 C 46.640625 13.898438 46.5 13.589844 46.613281 17.570312 C 46.640625 18.269531 46.640625 19.671875 46.640625 21.210938 C 46.640625 23.285156 46.640625 25.636719 46.613281 26.734375 C 46.558594 31.074219 46.527344 31.300781 44.148438 31.582031 C 43.953125 31.722656 43.867188 31.917969 43.867188 32.085938 C 43.867188 32.28125 43.953125 32.394531 44.121094 32.394531 C 44.148438 32.394531 44.175781 32.394531 44.203125 32.394531 C 45.15625 32.253906 46.304688 32.226562 47.453125 32.226562 C 49.722656 32.226562 51.851562 32.394531 51.851562 32.394531 C 52.050781 32.394531 52.160156 32.253906 52.160156 32.058594 C 52.160156 31.890625 52.078125 31.722656 51.910156 31.582031 C 49.21875 31.355469 49.191406 30.90625 49.050781 26.648438 C 48.996094 25.414062 49.023438 24.15625 48.996094 22.894531 C 48.996094 22.695312 49.136719 22.613281 49.359375 22.585938 C 49.695312 22.585938 49.890625 22.585938 50.3125 22.558594 C 50.371094 22.558594 50.398438 22.558594 50.453125 22.558594 C 50.816406 22.558594 51.097656 22.753906 51.292969 23.003906 C 53.003906 25.023438 54.207031 28.019531 55.863281 30.234375 C 57.207031 32 59.054688 32.589844 61.128906 32.589844 C 63.007812 32.589844 63.484375 32.421875 63.484375 32.058594 Z M 55.359375 17.679688 C 55.359375 21.183594 51.992188 21.773438 49.640625 21.773438 C 49.527344 21.773438 49.414062 21.773438 49.304688 21.773438 C 49.105469 21.773438 48.996094 21.464844 48.996094 21.269531 C 48.996094 19.699219 48.996094 18.691406 49.023438 17.148438 C 49.023438 15.691406 49.050781 15.214844 49.078125 14.515625 C 49.164062 13.644531 49.304688 13.28125 50.929688 13.28125 C 52.808594 13.28125 55.359375 14.039062 55.359375 17.679688 Z M 55.359375 17.679688 " fill-opacity="1" fill-rule="nonzero"/><path fill="#000000" d="M 71.074219 31.582031 C 68.46875 31.300781 68.636719 30.457031 68.582031 27.238281 C 68.554688 25.554688 68.523438 23.539062 68.523438 21.578125 C 68.523438 20.117188 68.523438 18.71875 68.582031 17.457031 C 68.691406 13.925781 68.386719 13.535156 71.046875 13.28125 C 71.242188 13.195312 71.328125 13.027344 71.328125 12.832031 C 71.328125 12.636719 71.214844 12.441406 71.019531 12.441406 L 70.992188 12.441406 C 70.011719 12.582031 68.804688 12.609375 67.65625 12.609375 C 65.527344 12.609375 63.59375 12.46875 63.59375 12.46875 C 63.398438 12.46875 63.285156 12.636719 63.285156 12.832031 C 63.285156 12.972656 63.339844 13.167969 63.507812 13.28125 C 66.03125 13.503906 66.003906 13.503906 66.144531 17.511719 C 66.171875 18.492188 66.199219 20.257812 66.199219 22.136719 C 66.199219 23.988281 66.171875 25.917969 66.144531 27.265625 C 66.058594 30.625 66.339844 31.300781 63.621094 31.582031 C 63.453125 31.722656 63.371094 31.917969 63.371094 32.085938 C 63.371094 32.253906 63.453125 32.394531 63.621094 32.394531 C 63.648438 32.394531 63.675781 32.394531 63.703125 32.394531 C 64.515625 32.253906 65.582031 32.199219 66.675781 32.199219 C 68.832031 32.199219 71.019531 32.394531 71.019531 32.394531 C 71.214844 32.394531 71.328125 32.253906 71.328125 32.058594 C 71.328125 31.890625 71.242188 31.722656 71.074219 31.582031 Z M 71.074219 31.582031 " fill-opacity="1" fill-rule="nonzero"/><path fill="#000000" d="M 91.417969 31.523438 C 90.015625 31.300781 89.457031 30.542969 89.007812 29.367188 C 83.402344 14.628906 82.953125 12.496094 82.84375 11.964844 C 82.785156 11.710938 82.675781 11.601562 82.5625 11.601562 C 82.421875 11.601562 82.28125 11.683594 82.171875 11.851562 C 81.722656 12.496094 81.273438 12.777344 80.742188 13.085938 C 80.601562 13.167969 80.542969 13.308594 80.542969 13.449219 C 80.542969 13.503906 80.542969 13.5625 80.570312 13.589844 C 80.628906 13.703125 80.683594 13.898438 80.683594 14.039062 C 80.683594 14.066406 80.65625 14.121094 80.65625 14.152344 C 78.554688 19.476562 76.3125 27.097656 75.023438 29.648438 C 74.4375 30.792969 73.875 31.355469 72.558594 31.550781 C 72.390625 31.691406 72.335938 31.890625 72.335938 32.058594 C 72.335938 32.253906 72.417969 32.394531 72.585938 32.394531 C 72.585938 32.394531 72.613281 32.394531 72.640625 32.394531 C 73.34375 32.253906 74.183594 32.226562 74.996094 32.226562 C 76.789062 32.226562 78.5 32.421875 78.5 32.421875 C 78.695312 32.421875 78.835938 32.253906 78.835938 32.058594 C 78.835938 31.890625 78.75 31.691406 78.554688 31.550781 C 77.292969 31.355469 76.566406 31.214844 76.566406 30.289062 C 76.566406 30.121094 76.59375 29.957031 76.621094 29.757812 C 76.761719 29.003906 77.742188 26.171875 78.132812 24.800781 C 78.273438 24.296875 78.609375 24.238281 78.890625 24.238281 C 79.425781 24.210938 80.460938 24.183594 81.5 24.183594 C 84.496094 24.183594 84.582031 24.296875 84.636719 24.464844 C 85.027344 25.527344 86.457031 29.648438 86.457031 30.402344 C 86.457031 31.214844 85.785156 31.414062 84.664062 31.550781 C 84.46875 31.664062 84.386719 31.863281 84.386719 32.058594 C 84.386719 32.226562 84.496094 32.394531 84.664062 32.394531 C 84.691406 32.394531 84.691406 32.394531 84.722656 32.394531 C 85.476562 32.28125 86.429688 32.226562 87.355469 32.226562 C 89.375 32.226562 91.363281 32.421875 91.363281 32.421875 C 91.558594 32.421875 91.644531 32.226562 91.644531 32 C 91.644531 31.804688 91.585938 31.636719 91.417969 31.523438 Z M 84.078125 22.78125 C 84.078125 22.894531 83.992188 22.949219 83.851562 22.949219 C 83.375 23.003906 82.171875 23.003906 81.050781 23.003906 C 80.152344 23.003906 79.339844 23.003906 79.03125 22.976562 C 78.949219 22.949219 78.75 22.921875 78.75 22.808594 L 78.75 22.78125 C 79.144531 21.40625 80.683594 16.671875 81.1875 15.550781 C 81.21875 15.496094 81.273438 15.464844 81.300781 15.464844 C 81.441406 15.464844 84.078125 22.640625 84.078125 22.78125 Z M 84.078125 22.78125 " fill-opacity="1" fill-rule="nonzero"/><path fill="#000000" d="M 113.804688 16.363281 C 113.777344 15.550781 113.691406 14.570312 113.691406 13.785156 C 113.691406 13.5625 113.691406 13.363281 113.71875 13.167969 C 113.75 13 113.777344 12.859375 113.777344 12.75 C 113.777344 12.523438 113.71875 12.46875 110.832031 12.46875 C 108.339844 12.46875 105.539062 12.582031 103.324219 12.582031 C 102.203125 12.582031 101.222656 12.554688 100.492188 12.46875 C 100.464844 12.46875 100.464844 12.46875 100.4375 12.46875 C 100.269531 12.46875 100.15625 12.609375 100.15625 12.804688 C 100.15625 12.972656 100.242188 13.140625 100.410156 13.28125 C 102.847656 13.617188 102.929688 13.449219 102.988281 17.007812 C 103.015625 18.183594 103.015625 19.699219 103.015625 21.238281 C 103.015625 23.339844 103.015625 25.527344 102.988281 27.152344 C 102.957031 30.792969 102.988281 31.242188 100.519531 31.582031 C 100.351562 31.722656 100.269531 31.917969 100.269531 32.085938 C 100.269531 32.253906 100.351562 32.394531 100.519531 32.394531 C 100.550781 32.394531 100.578125 32.394531 100.605469 32.394531 C 101.53125 32.253906 102.679688 32.199219 103.828125 32.199219 C 106.097656 32.199219 108.3125 32.394531 108.3125 32.394531 C 108.480469 32.394531 108.59375 32.167969 108.59375 31.945312 C 108.59375 31.777344 108.507812 31.609375 108.339844 31.582031 C 105.789062 31.132812 105.453125 31.160156 105.453125 27.347656 C 105.453125 27.238281 105.453125 27.097656 105.453125 26.957031 C 105.453125 25.945312 105.398438 24.238281 105.398438 23.257812 C 105.398438 23.117188 105.398438 23.003906 105.398438 22.894531 C 105.398438 22.445312 105.507812 22.390625 107.050781 22.390625 C 109.347656 22.390625 111.449219 22.417969 111.730469 25.105469 C 111.730469 25.332031 111.925781 25.414062 112.121094 25.414062 C 112.316406 25.414062 112.542969 25.304688 112.542969 25.105469 C 112.542969 25.105469 112.402344 23.398438 112.402344 21.660156 C 112.402344 20.761719 112.429688 19.894531 112.542969 19.195312 C 112.542969 19.167969 112.542969 19.140625 112.542969 19.140625 C 112.542969 18.914062 112.34375 18.800781 112.148438 18.800781 C 111.953125 18.800781 111.757812 18.886719 111.730469 19.082031 C 111.308594 21.464844 109.402344 21.578125 107.246094 21.578125 C 105.621094 21.578125 105.398438 21.4375 105.398438 21.128906 C 105.398438 20.652344 105.398438 20.117188 105.398438 19.585938 C 105.398438 13.644531 105.507812 13.5625 106.265625 13.449219 C 106.742188 13.363281 107.300781 13.335938 107.917969 13.335938 C 111.675781 13.335938 112.09375 14.121094 113.101562 16.53125 C 113.160156 16.644531 113.273438 16.699219 113.382812 16.699219 C 113.582031 16.699219 113.804688 16.589844 113.804688 16.390625 Z M 113.804688 16.363281 " fill-opacity="1" fill-rule="nonzero"/><path fill="#000000" d="M 135.714844 32.058594 C 135.714844 31.832031 135.714844 31.691406 135.125 31.691406 C 133.25 31.691406 132.042969 31.105469 130.78125 29.703125 C 128.820312 27.515625 127.8125 24.546875 125.90625 22.390625 C 125.792969 22.277344 125.683594 22.136719 125.683594 22.054688 C 125.683594 21.996094 125.710938 21.96875 125.851562 21.941406 C 128.121094 21.40625 130.222656 19.949219 130.222656 17.039062 C 130.222656 13.785156 127.28125 12.441406 123.71875 12.441406 C 123.523438 12.441406 123.300781 12.46875 123.078125 12.46875 C 121.421875 12.554688 120.164062 12.636719 118.734375 12.636719 C 118.003906 12.636719 117.222656 12.609375 116.324219 12.554688 L 116.292969 12.554688 C 116.125 12.554688 116.015625 12.71875 116.015625 12.917969 C 116.015625 13.085938 116.097656 13.253906 116.265625 13.394531 C 118.871094 13.898438 118.734375 13.589844 118.84375 17.570312 C 118.871094 18.269531 118.871094 19.671875 118.871094 21.210938 C 118.871094 23.285156 118.871094 25.636719 118.84375 26.734375 C 118.789062 31.074219 118.761719 31.300781 116.378906 31.582031 C 116.183594 31.722656 116.097656 31.917969 116.097656 32.085938 C 116.097656 32.28125 116.183594 32.394531 116.351562 32.394531 C 116.378906 32.394531 116.40625 32.394531 116.433594 32.394531 C 117.390625 32.253906 118.535156 32.226562 119.6875 32.226562 C 121.957031 32.226562 124.085938 32.394531 124.085938 32.394531 C 124.28125 32.394531 124.394531 32.253906 124.394531 32.058594 C 124.394531 31.890625 124.308594 31.722656 124.140625 31.582031 C 121.453125 31.355469 121.421875 30.90625 121.28125 26.648438 C 121.226562 25.414062 121.253906 24.15625 121.226562 22.894531 C 121.226562 22.695312 121.367188 22.613281 121.589844 22.585938 C 121.929688 22.585938 122.125 22.585938 122.542969 22.558594 C 122.601562 22.558594 122.628906 22.558594 122.683594 22.558594 C 123.046875 22.558594 123.328125 22.753906 123.523438 23.003906 C 125.234375 25.023438 126.4375 28.019531 128.09375 30.234375 C 129.4375 32 131.285156 32.589844 133.359375 32.589844 C 135.238281 32.589844 135.714844 32.421875 135.714844 32.058594 Z M 127.589844 17.679688 C 127.589844 21.183594 124.226562 21.773438 121.871094 21.773438 C 121.761719 21.773438 121.648438 21.773438 121.535156 21.773438 C 121.339844 21.773438 121.226562 21.464844 121.226562 21.269531 C 121.226562 19.699219 121.226562 18.691406 121.253906 17.148438 C 121.253906 15.691406 121.28125 15.214844 121.3125 14.515625 C 121.394531 13.644531 121.535156 13.28125 123.160156 13.28125 C 125.039062 13.28125 127.589844 14.039062 127.589844 17.679688 Z M 127.589844 17.679688 " fill-opacity="1" fill-rule="nonzero"/><path fill="#000000" d="M 151.9375 27.851562 L 151.9375 27.824219 C 151.9375 27.683594 151.683594 27.460938 151.460938 27.460938 C 151.347656 27.460938 151.265625 27.515625 151.207031 27.601562 C 149.246094 30.488281 147.59375 31.550781 144.566406 31.550781 C 144.148438 31.550781 143.78125 31.523438 143.445312 31.46875 C 140.753906 31.074219 140.839844 30.09375 140.726562 27.769531 C 140.699219 27.042969 140.671875 25.105469 140.671875 23.761719 C 140.671875 23.257812 140.671875 22.835938 140.671875 22.585938 C 140.671875 22.109375 140.785156 22.109375 142.101562 22.109375 C 144.371094 22.109375 146.304688 22.277344 146.527344 24.769531 C 146.558594 24.9375 146.753906 25.050781 146.949219 25.050781 C 147.175781 25.050781 147.371094 24.9375 147.371094 24.769531 C 147.371094 24.769531 147.230469 23.0625 147.230469 21.324219 C 147.230469 20.425781 147.257812 19.558594 147.371094 18.859375 L 147.371094 18.828125 C 147.371094 18.605469 147.175781 18.519531 146.949219 18.519531 C 146.753906 18.519531 146.558594 18.605469 146.527344 18.773438 C 146.109375 21.15625 144.511719 21.269531 142.242188 21.269531 C 140.980469 21.269531 140.671875 21.238281 140.671875 20.820312 C 140.671875 20.175781 140.671875 19.503906 140.671875 18.773438 C 140.671875 13.84375 140.753906 13.5625 141.570312 13.421875 C 142.074219 13.363281 142.632812 13.335938 143.25 13.335938 C 146.386719 13.335938 147.511719 13.871094 148.488281 16.53125 C 148.519531 16.644531 148.628906 16.671875 148.742188 16.671875 C 148.769531 16.671875 149.191406 16.671875 149.191406 16.167969 C 149.191406 15.242188 148.996094 14.066406 148.996094 13.167969 C 148.996094 13.027344 149.023438 12.886719 149.023438 12.777344 C 149.023438 12.75 149.023438 12.75 149.023438 12.71875 C 149.023438 12.46875 148.882812 12.441406 148.40625 12.441406 C 148.40625 12.441406 143.894531 12.554688 140.140625 12.554688 C 138.234375 12.554688 136.550781 12.523438 135.683594 12.441406 L 135.65625 12.441406 C 135.460938 12.441406 135.347656 12.609375 135.347656 12.804688 C 135.347656 12.972656 135.433594 13.140625 135.601562 13.28125 C 137.535156 13.28125 137.925781 13.898438 138.039062 14.542969 C 138.175781 15.214844 138.261719 16.757812 138.261719 18.773438 C 138.261719 19.894531 138.289062 21.015625 138.289062 22.136719 C 138.289062 24.097656 138.261719 26.03125 138.207031 27.964844 C 138.207031 31.160156 138.121094 31.382812 135.710938 31.582031 C 135.542969 31.722656 135.460938 31.917969 135.460938 32.085938 C 135.460938 32.253906 135.570312 32.394531 135.769531 32.394531 L 135.796875 32.394531 C 136.890625 32.308594 138.765625 32.28125 140.785156 32.28125 C 144.820312 32.28125 149.445312 32.394531 149.445312 32.394531 C 149.921875 32.394531 150.117188 32.28125 150.199219 32.085938 C 150.480469 31.242188 151.574219 29.058594 151.9375 27.851562 Z M 151.9375 27.851562 " fill-opacity="1" fill-rule="nonzero"/><path fill="#000000" d="M 169.363281 27.851562 L 169.363281 27.824219 C 169.363281 27.683594 169.113281 27.460938 168.890625 27.460938 C 168.777344 27.460938 168.691406 27.515625 168.636719 27.601562 C 166.675781 30.488281 165.019531 31.550781 161.996094 31.550781 C 161.574219 31.550781 161.210938 31.523438 160.875 31.46875 C 158.183594 31.074219 158.269531 30.09375 158.15625 27.769531 C 158.128906 27.042969 158.101562 25.105469 158.101562 23.761719 C 158.101562 23.257812 158.101562 22.835938 158.101562 22.585938 C 158.101562 22.109375 158.210938 22.109375 159.527344 22.109375 C 161.796875 22.109375 163.734375 22.277344 163.957031 24.769531 C 163.984375 24.9375 164.179688 25.050781 164.375 25.050781 C 164.601562 25.050781 164.796875 24.9375 164.796875 24.769531 C 164.796875 24.769531 164.65625 23.0625 164.65625 21.324219 C 164.65625 20.425781 164.683594 19.558594 164.796875 18.859375 L 164.796875 18.828125 C 164.796875 18.605469 164.601562 18.519531 164.375 18.519531 C 164.179688 18.519531 163.984375 18.605469 163.957031 18.773438 C 163.539062 21.15625 161.9375 21.269531 159.667969 21.269531 C 158.410156 21.269531 158.101562 21.238281 158.101562 20.820312 C 158.101562 20.175781 158.101562 19.503906 158.101562 18.773438 C 158.101562 13.84375 158.183594 13.5625 158.996094 13.421875 C 159.5 13.363281 160.0625 13.335938 160.679688 13.335938 C 163.816406 13.335938 164.9375 13.871094 165.917969 16.53125 C 165.945312 16.644531 166.058594 16.671875 166.171875 16.671875 C 166.199219 16.671875 166.617188 16.671875 166.617188 16.167969 C 166.617188 15.242188 166.421875 14.066406 166.421875 13.167969 C 166.421875 13.027344 166.449219 12.886719 166.449219 12.777344 C 166.449219 12.75 166.449219 12.75 166.449219 12.71875 C 166.449219 12.46875 166.3125 12.441406 165.835938 12.441406 C 165.835938 12.441406 161.324219 12.554688 157.566406 12.554688 C 155.664062 12.554688 153.980469 12.523438 153.113281 12.441406 L 153.085938 12.441406 C 152.886719 12.441406 152.773438 12.609375 152.773438 12.804688 C 152.773438 12.972656 152.859375 13.140625 153.027344 13.28125 C 154.960938 13.28125 155.355469 13.898438 155.464844 14.542969 C 155.605469 15.214844 155.691406 16.757812 155.691406 18.773438 C 155.691406 19.894531 155.71875 21.015625 155.71875 22.136719 C 155.71875 24.097656 155.691406 26.03125 155.632812 27.964844 C 155.632812 31.160156 155.550781 31.382812 153.140625 31.582031 C 152.972656 31.722656 152.886719 31.917969 152.886719 32.085938 C 152.886719 32.253906 153 32.394531 153.195312 32.394531 L 153.222656 32.394531 C 154.316406 32.308594 156.195312 32.28125 158.210938 32.28125 C 162.246094 32.28125 166.871094 32.394531 166.871094 32.394531 C 167.347656 32.394531 167.542969 32.28125 167.628906 32.085938 C 167.90625 31.242188 169 29.058594 169.363281 27.851562 Z M 169.363281 27.851562 " fill-opacity="1" fill-rule="nonzero"/></svg>