<svg xmlns="http://www.w3.org/2000/svg" xmlns:xlink="http://www.w3.org/1999/xlink" width="500" zoomAndPan="magnify" viewBox="0 0 375 374.999991" height="500" preserveAspectRatio="xMidYMid meet" version="1.0"><defs><clipPath id="59a806cbfc"><path d="M 0 8.789062 L 375 8.789062 L 375 366.210938 L 0 366.210938 Z M 0 8.789062 " clip-rule="nonzero"/></clipPath><clipPath id="fd49d3881e"><path d="M 187.5 8.789062 L 231.761719 145.3125 L 375 145.3125 L 259.117188 229.6875 L 303.382812 366.210938 L 187.5 281.835938 L 71.617188 366.210938 L 115.882812 229.6875 L 0 145.3125 L 143.238281 145.3125 Z M 187.5 8.789062 " clip-rule="nonzero"/></clipPath><clipPath id="a306d048e7"><path d="M 187.648438 8.789062 L 375 8.789062 L 375 366.210938 L 187.648438 366.210938 Z M 187.648438 8.789062 " clip-rule="nonzero"/></clipPath><clipPath id="a1d5956fbc"><path d="M 187.5 8.789062 L 231.761719 145.3125 L 375 145.3125 L 259.117188 229.6875 L 303.382812 366.210938 L 187.5 281.835938 L 71.617188 366.210938 L 115.882812 229.6875 L 0 145.3125 L 143.238281 145.3125 Z M 187.5 8.789062 " clip-rule="nonzero"/></clipPath></defs><g clip-path="url(#59a806cbfc)"><g clip-path="url(#fd49d3881e)"><path fill="#ffde59" d="M 0 8.789062 L 375.570312 8.789062 L 375.570312 366.210938 L 0 366.210938 Z M 0 8.789062 " fill-opacity="1" fill-rule="nonzero"/></g></g><g clip-path="url(#a306d048e7)"><g clip-path="url(#a1d5956fbc)"><path fill="#919191" d="M 0 8.789062 L 375.570312 8.789062 L 375.570312 366.210938 L 0 366.210938 Z M 0 8.789062 " fill-opacity="1" fill-rule="nonzero"/></g></g></svg>