<svg xmlns="http://www.w3.org/2000/svg" xmlns:xlink="http://www.w3.org/1999/xlink" width="300" zoomAndPan="magnify" viewBox="0 0 224.87999 74.999997" height="100" preserveAspectRatio="xMidYMid meet" version="1.0"><defs><clipPath id="d97f3a07ad"><path d="M 0 0.0195312 L 224.761719 0.0195312 L 224.761719 74.980469 L 0 74.980469 Z M 0 0.0195312 " clip-rule="nonzero"/></clipPath></defs><g clip-path="url(#d97f3a07ad)"><path fill="#ffffff" d="M 0 0.0195312 L 224.878906 0.0195312 L 224.878906 74.980469 L 0 74.980469 Z M 0 0.0195312 " fill-opacity="1" fill-rule="nonzero"/><path fill="#ffffff" d="M 0 0.0195312 L 224.878906 0.0195312 L 224.878906 74.980469 L 0 74.980469 Z M 0 0.0195312 " fill-opacity="1" fill-rule="nonzero"/><rect x="-22.487999" width="269.855988" fill="#ffffff" y="-7.5" height="89.999996" fill-opacity="1"/><rect x="-22.487999" width="269.855988" fill="#ffffff" y="-7.5" height="89.999996" fill-opacity="1"/></g><path fill="#000000" d="M 58.15625 26.851562 L 50.714844 43.585938 L 43.558594 26.851562 L 41.140625 26.851562 L 49.742188 46.976562 L 49.929688 46.976562 L 58.878906 26.851562 Z M 58.15625 26.851562 " fill-opacity="1" fill-rule="nonzero"/><path fill="#000000" d="M 76.367188 46.566406 L 78.785156 46.566406 L 70.148438 26.472656 L 69.992188 26.472656 L 61.042969 46.566406 L 61.730469 46.566406 L 65.28125 38.65625 L 72.941406 38.65625 Z M 65.5 38.121094 L 69.175781 29.863281 L 72.722656 38.121094 Z M 65.5 38.121094 " fill-opacity="1" fill-rule="nonzero"/><path fill="#000000" d="M 95.230469 46.566406 L 87.855469 37.273438 C 90.179688 36.960938 93.695312 35.832031 93.695312 31.78125 C 93.695312 27.445312 88.984375 26.851562 87.382812 26.851562 C 85.84375 26.851562 81.417969 26.851562 81.417969 26.851562 L 81.417969 46.566406 L 83.644531 46.566406 L 83.644531 37.398438 L 85.089844 37.398438 L 92.375 46.566406 Z M 83.644531 27.351562 L 86.1875 27.351562 C 89.390625 27.351562 91.304688 28.671875 91.304688 32.125 C 91.304688 35.640625 89.046875 36.898438 85.371094 36.898438 L 83.644531 36.898438 Z M 83.644531 27.351562 " fill-opacity="1" fill-rule="nonzero"/><path fill="#000000" d="M 98.121094 46.566406 L 100.347656 46.566406 L 100.347656 26.851562 L 98.121094 26.851562 Z M 98.121094 46.566406 " fill-opacity="1" fill-rule="nonzero"/><path fill="#000000" d="M 118.746094 46.566406 L 121.164062 46.566406 L 112.527344 26.472656 L 112.371094 26.472656 L 103.421875 46.566406 L 104.113281 46.566406 L 107.660156 38.65625 L 115.324219 38.65625 Z M 107.882812 38.121094 L 111.554688 29.863281 L 115.101562 38.121094 Z M 107.882812 38.121094 " fill-opacity="1" fill-rule="nonzero"/><path fill="#000000" d="M 141.628906 27.351562 L 141.628906 26.851562 L 131.644531 26.851562 L 131.644531 46.566406 L 133.875 46.566406 L 133.875 36.523438 L 140.785156 36.523438 L 140.785156 36.019531 L 133.875 36.019531 L 133.875 27.351562 Z M 141.628906 27.351562 " fill-opacity="1" fill-rule="nonzero"/><path fill="#000000" d="M 158.082031 46.566406 L 150.703125 37.273438 C 153.027344 36.960938 156.542969 35.832031 156.542969 31.78125 C 156.542969 27.445312 151.832031 26.851562 150.234375 26.851562 C 148.691406 26.851562 144.265625 26.851562 144.265625 26.851562 L 144.265625 46.566406 L 146.496094 46.566406 L 146.496094 37.398438 L 147.941406 37.398438 L 155.226562 46.566406 Z M 146.496094 27.351562 L 149.039062 27.351562 C 152.242188 27.351562 154.15625 28.671875 154.15625 32.125 C 154.15625 35.640625 151.894531 36.898438 148.222656 36.898438 L 146.496094 36.898438 Z M 146.496094 27.351562 " fill-opacity="1" fill-rule="nonzero"/><path fill="#000000" d="M 170.636719 27.351562 L 170.636719 26.851562 L 160.652344 26.851562 L 160.652344 46.566406 L 170.636719 46.566406 L 170.636719 46.066406 L 162.882812 46.066406 L 162.882812 36.523438 L 169.789062 36.523438 L 169.789062 36.019531 L 162.882812 36.019531 L 162.882812 27.351562 Z M 170.636719 27.351562 " fill-opacity="1" fill-rule="nonzero"/><path fill="#000000" d="M 183.476562 27.351562 L 183.476562 26.851562 L 173.492188 26.851562 L 173.492188 46.566406 L 183.476562 46.566406 L 183.476562 46.066406 L 175.722656 46.066406 L 175.722656 36.523438 L 182.628906 36.523438 L 182.628906 36.019531 L 175.722656 36.019531 L 175.722656 27.351562 Z M 183.476562 27.351562 " fill-opacity="1" fill-rule="nonzero"/><path fill="#000000" d="M 29.90625 29.191406 L 31.027344 26.382812 L 31.632812 26.621094 L 30.515625 29.433594 Z M 28.9375 28.808594 L 30.054688 25.996094 L 30.65625 26.234375 L 29.539062 29.046875 Z M 27.980469 28.425781 L 29.101562 25.613281 L 29.695312 25.851562 L 28.578125 28.664062 Z M 33.257812 27.613281 C 33.15625 27.863281 33.109375 27.898438 32.941406 27.832031 L 31.78125 27.371094 L 32.191406 26.335938 L 28.882812 25.023438 L 27.425781 28.691406 L 30.730469 30.007812 L 31.042969 29.21875 C 31.742188 29.640625 32.078125 30.128906 31.839844 31.421875 C 31.960938 31.367188 32.191406 31.316406 32.316406 31.324219 C 32.539062 29.878906 32.105469 29.273438 31.226562 28.761719 L 31.605469 27.808594 L 32.773438 28.273438 C 33.246094 28.457031 33.433594 28.363281 33.648438 27.816406 L 34.023438 26.875 C 34.21875 26.386719 34.058594 26.175781 33.234375 25.785156 C 33.15625 25.894531 33.011719 26.054688 32.898438 26.117188 C 33.605469 26.429688 33.695312 26.515625 33.601562 26.75 Z M 33.257812 27.613281 " fill-opacity="1" fill-rule="nonzero"/><path fill="#000000" d="M 34.660156 18.46875 C 34.324219 18.460938 33.847656 18.503906 33.589844 18.539062 L 33.515625 18.984375 C 33.84375 18.929688 34.261719 18.925781 34.601562 18.925781 Z M 32.734375 20.425781 C 32.898438 20.445312 33.113281 20.484375 33.261719 20.527344 C 33.460938 20.578125 33.707031 20.660156 33.992188 20.765625 C 33.882812 21.042969 33.785156 21.296875 33.695312 21.503906 C 33.644531 21.613281 33.542969 21.820312 33.449219 21.984375 L 33.984375 22.175781 C 34.097656 21.890625 34.246094 21.425781 34.421875 20.921875 C 34.589844 20.988281 34.769531 21.054688 34.949219 21.125 C 35.773438 21.449219 36.691406 21.957031 37.34375 22.34375 L 37.625 21.859375 C 36.992188 21.523438 35.898438 20.96875 35.121094 20.664062 C 34.949219 20.597656 34.765625 20.53125 34.589844 20.464844 C 34.863281 19.726562 35.199219 18.976562 35.582031 18.601562 C 36.019531 18.167969 36.460938 18.199219 36.726562 18.46875 C 37.035156 18.78125 37.097656 19.238281 36.613281 19.71875 C 36.375 19.953125 36.085938 20.105469 35.84375 20.191406 L 36.179688 20.5625 C 36.40625 20.460938 36.71875 20.273438 36.964844 20.03125 C 37.65625 19.347656 37.597656 18.636719 37.09375 18.125 C 36.617188 17.648438 35.894531 17.664062 35.285156 18.269531 C 34.824219 18.726562 34.460938 19.554688 34.164062 20.316406 C 33.894531 20.21875 33.625 20.128906 33.40625 20.058594 C 33.285156 20.027344 33.066406 19.957031 32.960938 19.921875 Z M 32.734375 20.425781 " fill-opacity="1" fill-rule="nonzero"/><path fill="#000000" d="M 43.441406 16.257812 C 43.121094 16.382812 42.769531 16.277344 42.628906 15.910156 C 42.484375 15.539062 42.683594 15.191406 42.980469 15.074219 C 43.207031 14.988281 43.441406 15.019531 43.632812 15.234375 C 43.898438 15.765625 43.78125 16.125 43.441406 16.257812 Z M 43.527344 13.816406 C 44.378906 13.488281 44.910156 13.296875 45.246094 13.1875 L 45.082031 12.746094 C 44.800781 12.855469 44.082031 13.125 43.378906 13.394531 L 43.292969 13.429688 C 43.234375 13.277344 43.1875 13.136719 43.15625 13.050781 L 43.042969 12.675781 L 42.507812 12.882812 C 42.550781 12.949219 42.632812 13.113281 42.6875 13.234375 C 42.722656 13.3125 42.78125 13.445312 42.84375 13.609375 C 41.988281 13.953125 40.914062 14.40625 40.269531 14.667969 L 40.460938 15.117188 C 41.164062 14.789062 42.132812 14.367188 43.011719 14.019531 C 43.09375 14.21875 43.171875 14.421875 43.238281 14.59375 C 43.105469 14.597656 42.964844 14.625 42.828125 14.679688 C 42.273438 14.890625 41.96875 15.511719 42.191406 16.085938 C 42.433594 16.714844 43.035156 16.878906 43.527344 16.691406 C 43.722656 16.613281 43.867188 16.503906 43.96875 16.351562 C 43.925781 16.960938 43.511719 17.480469 42.816406 17.953125 L 43.371094 18.191406 C 44.5625 17.265625 44.609375 16.246094 44.304688 15.460938 C 44.195312 15.171875 44.03125 14.941406 43.832031 14.789062 C 43.722656 14.527344 43.578125 14.171875 43.453125 13.84375 Z M 43.527344 13.816406 " fill-opacity="1" fill-rule="nonzero"/><path fill="#000000" d="M 50.546875 11.835938 L 49.949219 11.800781 C 49.972656 11.949219 49.964844 12.207031 49.960938 12.351562 C 49.941406 12.71875 49.917969 13.46875 49.953125 14.011719 C 50.054688 15.628906 50.589844 16.238281 51.175781 16.265625 C 51.601562 16.285156 52 15.945312 52.417969 14.90625 L 52.042969 14.4375 C 51.851562 15.058594 51.535156 15.683594 51.214844 15.667969 C 50.777344 15.652344 50.503906 14.953125 50.449219 13.90625 C 50.425781 13.398438 50.445312 12.824219 50.46875 12.4375 C 50.484375 12.273438 50.515625 11.988281 50.546875 11.835938 Z M 53.777344 12.152344 L 53.28125 12.296875 C 53.835938 13.054688 54.160156 14.296875 54.214844 15.417969 L 54.734375 15.242188 C 54.691406 14.1875 54.304688 12.898438 53.777344 12.152344 Z M 53.777344 12.152344 " fill-opacity="1" fill-rule="nonzero"/><path fill="#000000" d="M 60.804688 17.777344 C 60.933594 17.503906 61.160156 17.027344 61.3125 16.703125 C 61.832031 16.714844 62.3125 16.75 62.6875 16.78125 C 62.859375 16.792969 63.101562 16.816406 63.261719 16.847656 L 63.292969 16.335938 C 63.09375 16.335938 62.925781 16.335938 62.722656 16.328125 C 62.363281 16.320312 61.957031 16.289062 61.484375 16.28125 C 61.5625 15.90625 61.355469 15.585938 60.996094 15.410156 C 60.746094 15.289062 60.386719 15.210938 60.121094 15.238281 C 60.453125 15.078125 60.777344 14.855469 61.042969 14.628906 C 61.664062 14.90625 62.375 15.191406 62.96875 15.378906 L 63.179688 14.964844 C 62.605469 14.796875 61.972656 14.546875 61.390625 14.296875 C 61.59375 14.082031 61.757812 13.875 61.875 13.734375 L 61.433594 13.46875 C 61.324219 13.65625 61.148438 13.882812 60.949219 14.09375 C 60.816406 14.035156 60.699219 13.976562 60.578125 13.917969 C 60.328125 13.792969 59.949219 13.582031 59.667969 13.402344 L 59.457031 13.824219 C 59.75 13.996094 60.125 14.191406 60.363281 14.308594 L 60.59375 14.421875 C 60.167969 14.757812 59.519531 15.15625 58.472656 15.492188 L 58.714844 15.96875 C 59.015625 15.835938 59.277344 15.707031 59.507812 15.628906 C 59.882812 15.527344 60.308594 15.515625 60.675781 15.695312 C 60.914062 15.8125 61.066406 16.027344 61.007812 16.285156 C 60.195312 16.300781 59.324219 16.394531 59 17.050781 C 58.664062 17.734375 59.222656 18.21875 60.023438 18.613281 C 60.507812 18.851562 61.148438 19.117188 61.59375 19.269531 L 61.832031 18.820312 C 61.300781 18.664062 60.675781 18.421875 60.242188 18.210938 C 59.667969 17.925781 59.265625 17.652344 59.480469 17.214844 C 59.660156 16.847656 60.164062 16.734375 60.820312 16.710938 C 60.675781 17.003906 60.492188 17.359375 60.371094 17.566406 Z M 60.804688 17.777344 " fill-opacity="1" fill-rule="nonzero"/><path fill="#000000" d="M 170.234375 59.449219 L 170.546875 59.960938 C 171.003906 59.691406 172.460938 58.773438 173.472656 58.621094 C 174.304688 58.492188 174.847656 58.921875 174.945312 59.570312 C 175.140625 60.828125 173.789062 61.53125 172.1875 61.820312 L 172.484375 62.304688 C 174.367188 61.90625 175.71875 60.96875 175.492188 59.492188 C 175.335938 58.460938 174.433594 57.996094 173.414062 58.152344 C 172.515625 58.292969 171.378906 58.921875 170.882812 59.164062 C 170.664062 59.269531 170.453125 59.371094 170.234375 59.449219 Z M 170.234375 59.449219 " fill-opacity="1" fill-rule="nonzero"/><path fill="#000000" d="M 180.367188 54.222656 C 180.371094 54.355469 180.328125 54.589844 180.289062 54.761719 C 180.160156 55.347656 179.761719 56.480469 179.582031 57.0625 C 179.355469 57.761719 179.457031 58.035156 180.210938 58.136719 C 180.957031 58.226562 182.304688 58.417969 182.789062 58.546875 C 182.976562 58.597656 183.207031 58.636719 183.390625 58.699219 L 183.554688 58.113281 C 182.71875 57.925781 181.238281 57.738281 180.519531 57.65625 C 180 57.589844 179.949219 57.511719 180.09375 57.035156 C 180.277344 56.472656 180.648438 55.390625 180.816406 54.84375 C 180.855469 54.71875 180.925781 54.476562 180.988281 54.320312 Z M 180.367188 54.222656 " fill-opacity="1" fill-rule="nonzero"/><path fill="#000000" d="M 189.117188 52.070312 C 188.855469 52.457031 188.511719 52.65625 188.253906 52.484375 C 188.082031 52.367188 188.058594 52.09375 188.214844 51.859375 C 188.480469 51.46875 188.925781 51.414062 189.363281 51.640625 C 189.300781 51.777344 189.214844 51.929688 189.117188 52.070312 Z M 186.089844 48.484375 C 186.070312 48.554688 186.03125 48.632812 185.945312 48.796875 C 185.789062 49.085938 184.996094 50.332031 184.820312 50.597656 C 184.75 50.699219 184.648438 50.847656 184.558594 50.949219 L 184.996094 51.230469 C 185.050781 51.109375 185.125 50.984375 185.203125 50.859375 C 185.363281 50.585938 186.003906 49.539062 186.171875 49.261719 C 186.230469 49.671875 186.339844 50.675781 186.386719 51.125 C 186.433594 51.59375 186.539062 52.628906 186.605469 53.292969 L 187.117188 53.199219 C 186.894531 52.09375 186.847656 51.382812 187.421875 50.535156 C 187.859375 49.882812 188.574219 49.625 189.078125 49.964844 C 189.5 50.25 189.640625 50.683594 189.523438 51.195312 C 188.996094 50.9375 188.328125 50.996094 187.894531 51.640625 C 187.570312 52.121094 187.679688 52.652344 188.035156 52.894531 C 188.460938 53.183594 189.0625 52.960938 189.539062 52.257812 C 190.273438 51.171875 190.199219 50.113281 189.367188 49.550781 C 188.667969 49.082031 187.726562 49.347656 187.152344 50.207031 C 186.996094 50.4375 186.871094 50.691406 186.789062 50.980469 C 186.722656 50.359375 186.582031 49.253906 186.558594 48.871094 C 186.554688 48.753906 186.554688 48.585938 186.554688 48.449219 Z M 186.089844 48.484375 " fill-opacity="1" fill-rule="nonzero"/></svg>