<svg xmlns="http://www.w3.org/2000/svg" xmlns:xlink="http://www.w3.org/1999/xlink" width="150" zoomAndPan="magnify" viewBox="0 0 112.5 82.499998" height="110" preserveAspectRatio="xMidYMid meet" version="1.0"><defs><clipPath id="db1905041a"><path d="M 0.0898438 0 L 111.914062 0 L 111.914062 82.003906 L 0.0898438 82.003906 Z M 0.0898438 0 " clip-rule="nonzero"/></clipPath><clipPath id="06bf595c1d"><path d="M 46 17.296875 L 65.320312 17.296875 L 65.320312 43.492188 L 46 43.492188 Z M 46 17.296875 " clip-rule="nonzero"/></clipPath><clipPath id="512e628d9d"><path d="M 59.378906 17.59375 L 65.234375 21.125 L 51.992188 43.070312 L 46.136719 39.535156 Z M 59.378906 17.59375 " clip-rule="nonzero"/></clipPath><clipPath id="64f8c945ca"><path d="M 59.378906 17.59375 L 65.234375 21.125 L 52 43.058594 L 46.140625 39.523438 Z M 59.378906 17.59375 " clip-rule="nonzero"/></clipPath></defs><g clip-path="url(#db1905041a)"><path fill="#ffffff" d="M 0.0898438 0 L 111.914062 0 L 111.914062 82.003906 L 0.0898438 82.003906 Z M 0.0898438 0 " fill-opacity="1" fill-rule="nonzero"/><path fill="#ffffff" d="M 0.0898438 0 L 111.914062 0 L 111.914062 82.003906 L 0.0898438 82.003906 Z M 0.0898438 0 " fill-opacity="1" fill-rule="nonzero"/><rect x="-11.25" width="135" fill="#ffffff" y="-8.25" height="98.999997" fill-opacity="1"/><rect x="-11.25" width="135" fill="#ffffff" y="-8.25" height="98.999997" fill-opacity="1"/></g><path fill="#3d3b3a" d="M 19.847656 72.789062 L 18.863281 72.789062 L 16.585938 67.097656 L 17.617188 67.097656 L 19.375 71.722656 L 21.152344 67.097656 L 22.152344 67.097656 Z M 19.847656 72.789062 " fill-opacity="1" fill-rule="nonzero"/><path fill="#3d3b3a" d="M 29.859375 71.5 L 26.988281 71.5 L 26.441406 72.789062 L 25.441406 72.789062 L 27.957031 67.097656 L 28.933594 67.097656 L 31.429688 72.789062 L 30.40625 72.789062 Z M 29.488281 70.652344 L 28.417969 68.121094 L 27.34375 70.652344 Z M 29.488281 70.652344 " fill-opacity="1" fill-rule="nonzero"/><path fill="#3d3b3a" d="M 39.050781 72.789062 L 38.011719 71.070312 C 37.953125 71.074219 37.867188 71.078125 37.746094 71.078125 L 36.398438 71.078125 L 36.398438 72.789062 L 35.441406 72.789062 L 35.441406 67.097656 L 37.746094 67.097656 C 38.472656 67.097656 39.035156 67.269531 39.4375 67.605469 C 39.839844 67.945312 40.042969 68.421875 40.042969 69.039062 C 40.042969 69.492188 39.941406 69.878906 39.738281 70.199219 C 39.535156 70.511719 39.242188 70.742188 38.859375 70.886719 L 40.140625 72.789062 Z M 36.398438 70.210938 L 37.746094 70.210938 C 38.671875 70.210938 39.132812 69.832031 39.132812 69.066406 C 39.132812 68.332031 38.671875 67.960938 37.746094 67.960938 L 36.398438 67.960938 Z M 36.398438 70.210938 " fill-opacity="1" fill-rule="nonzero"/><path fill="#3d3b3a" d="M 44.578125 67.097656 L 45.53125 67.097656 L 45.53125 72.789062 L 44.578125 72.789062 Z M 44.578125 67.097656 " fill-opacity="1" fill-rule="nonzero"/><path fill="#3d3b3a" d="M 53.964844 71.5 L 51.09375 71.5 L 50.546875 72.789062 L 49.546875 72.789062 L 52.0625 67.097656 L 53.039062 67.097656 L 55.535156 72.789062 L 54.511719 72.789062 Z M 53.59375 70.652344 L 52.523438 68.121094 L 51.449219 70.652344 Z M 53.59375 70.652344 " fill-opacity="1" fill-rule="nonzero"/><path fill="#3d3b3a" d="M 68.714844 67.960938 L 65.855469 67.960938 L 65.855469 69.597656 L 68.449219 69.597656 L 68.449219 70.457031 L 65.855469 70.457031 L 65.855469 72.789062 L 64.902344 72.789062 L 64.902344 67.097656 L 68.71875 67.097656 Z M 68.714844 67.960938 " fill-opacity="1" fill-rule="nonzero"/><path fill="#3d3b3a" d="M 76.441406 72.789062 L 75.402344 71.070312 C 75.34375 71.074219 75.257812 71.078125 75.136719 71.078125 L 73.789062 71.078125 L 73.789062 72.789062 L 72.832031 72.789062 L 72.832031 67.097656 L 75.136719 67.097656 C 75.863281 67.097656 76.425781 67.269531 76.828125 67.605469 C 77.230469 67.945312 77.433594 68.421875 77.433594 69.039062 C 77.433594 69.492188 77.332031 69.878906 77.128906 70.199219 C 76.925781 70.511719 76.632812 70.742188 76.25 70.886719 L 77.53125 72.789062 Z M 73.789062 70.210938 L 75.136719 70.210938 C 76.0625 70.210938 76.523438 69.832031 76.523438 69.066406 C 76.523438 68.332031 76.0625 67.960938 75.136719 67.960938 L 73.789062 67.960938 Z M 73.789062 70.210938 " fill-opacity="1" fill-rule="nonzero"/><path fill="#3d3b3a" d="M 86.03125 67.960938 L 82.925781 67.960938 L 82.925781 69.492188 L 85.707031 69.492188 L 85.707031 70.355469 L 82.925781 70.355469 L 82.925781 71.925781 L 86.128906 71.925781 L 86.128906 72.789062 L 81.96875 72.789062 L 81.96875 67.097656 L 86.03125 67.097656 Z M 86.03125 67.960938 " fill-opacity="1" fill-rule="nonzero"/><path fill="#3d3b3a" d="M 94.621094 67.960938 L 91.515625 67.960938 L 91.515625 69.492188 L 94.296875 69.492188 L 94.296875 70.355469 L 91.515625 70.355469 L 91.515625 71.925781 L 94.722656 71.925781 L 94.722656 72.789062 L 90.558594 72.789062 L 90.558594 67.097656 L 94.621094 67.097656 Z M 94.621094 67.960938 " fill-opacity="1" fill-rule="nonzero"/><path fill="#3d3b3a" d="M 45.511719 35.6875 L 35.734375 12.511719 C 35.296875 11.210938 34.21875 10.5625 32.496094 10.5625 L 32.074219 10.5625 L 32.074219 9.652344 L 42.199219 9.652344 L 42.199219 10.5625 L 41.101562 10.5625 C 39.269531 10.5625 38.8125 11.25 39.726562 12.625 L 47.300781 30.8125 L 54.226562 12.585938 C 54.6875 11.238281 54.21875 10.5625 52.824219 10.5625 L 51.757812 10.5625 L 51.757812 9.652344 L 59.449219 9.652344 L 59.449219 10.5625 L 58.988281 10.5625 C 57.261719 10.5625 56.183594 11.210938 55.75 12.511719 L 46.578125 35.6875 Z M 45.511719 35.6875 " fill-opacity="1" fill-rule="nonzero"/><path fill="#3d3b3a" d="M 78.417969 34.632812 C 78.378906 33.527344 78.261719 32.1875 78.261719 31.121094 C 78.261719 30.8125 78.261719 30.546875 78.300781 30.277344 C 78.339844 30.046875 78.378906 29.859375 78.378906 29.707031 C 78.378906 29.402344 78.300781 29.324219 74.367188 29.324219 C 70.96875 29.324219 67.148438 29.476562 64.132812 29.476562 C 62.605469 29.476562 61.265625 29.4375 60.273438 29.324219 C 60.234375 29.324219 60.234375 29.324219 60.199219 29.324219 C 59.96875 29.324219 59.816406 29.515625 59.816406 29.78125 C 59.816406 30.011719 59.929688 30.238281 60.160156 30.429688 C 63.484375 30.890625 63.597656 30.660156 63.671875 35.511719 C 63.710938 37.113281 63.710938 39.175781 63.710938 41.277344 C 63.710938 44.140625 63.710938 47.121094 63.671875 49.335938 C 63.636719 54.300781 63.671875 54.910156 60.3125 55.371094 C 60.085938 55.5625 59.96875 55.828125 59.96875 56.058594 C 59.96875 56.289062 60.085938 56.480469 60.3125 56.480469 C 60.351562 56.480469 60.390625 56.480469 60.425781 56.480469 C 61.6875 56.289062 63.253906 56.210938 64.820312 56.210938 C 67.914062 56.210938 70.929688 56.480469 70.929688 56.480469 C 71.160156 56.480469 71.3125 56.171875 71.3125 55.867188 C 71.3125 55.636719 71.195312 55.410156 70.96875 55.371094 C 67.492188 54.761719 67.035156 54.796875 67.035156 49.601562 C 67.035156 49.449219 67.035156 49.257812 67.035156 49.066406 C 67.035156 47.695312 66.957031 45.363281 66.957031 44.027344 C 66.957031 43.835938 66.957031 43.683594 66.957031 43.53125 C 66.957031 42.917969 67.109375 42.84375 69.210938 42.84375 C 72.34375 42.84375 75.207031 42.882812 75.589844 46.546875 C 75.589844 46.851562 75.855469 46.96875 76.125 46.96875 C 76.390625 46.96875 76.699219 46.816406 76.699219 46.546875 C 76.699219 46.546875 76.507812 44.21875 76.507812 41.851562 C 76.507812 40.628906 76.542969 39.445312 76.699219 38.488281 C 76.699219 38.453125 76.699219 38.414062 76.699219 38.414062 C 76.699219 38.105469 76.429688 37.957031 76.164062 37.957031 C 75.894531 37.957031 75.625 38.070312 75.589844 38.335938 C 75.015625 41.585938 72.417969 41.734375 69.476562 41.734375 C 67.261719 41.734375 66.957031 41.542969 66.957031 41.125 C 66.957031 40.476562 66.957031 39.75 66.957031 39.023438 C 66.957031 30.929688 67.109375 30.8125 68.144531 30.660156 C 68.789062 30.546875 69.554688 30.507812 70.394531 30.507812 C 75.511719 30.507812 76.085938 31.578125 77.460938 34.863281 C 77.535156 35.015625 77.691406 35.089844 77.84375 35.089844 C 78.109375 35.089844 78.417969 34.9375 78.417969 34.671875 Z M 78.417969 34.632812 " fill-opacity="1" fill-rule="nonzero"/><g clip-path="url(#06bf595c1d)"><g clip-path="url(#512e628d9d)"><g clip-path="url(#64f8c945ca)"><path fill="#ffffff" d="M 59.378906 17.59375 L 65.234375 21.125 L 51.992188 43.070312 L 46.136719 39.535156 Z M 59.378906 17.59375 " fill-opacity="1" fill-rule="nonzero"/></g></g></g><path stroke-linecap="butt" transform="matrix(0.209085, -0.297708, 0.297708, 0.209085, 43.567608, 45.859297)" fill="none" stroke-linejoin="miter" d="M 0.00466003 1.501613 L 116.885666 1.49955 " stroke="#3d3b3a" stroke-width="3" stroke-opacity="1" stroke-miterlimit="4"/></svg>